<svg id="loginBackground" xmlns="http://www.w3.org/2000/svg" width="500.877" height="225" viewBox="0 0 500.877 225">
  <path id="Rectangle" d="M8,0H434a8,8,0,0,1,8,8V225a0,0,0,0,1,0,0H0a0,0,0,0,1,0,0V8A8,8,0,0,1,8,0Z" transform="translate(44)" fill="#5479f1"/>
  <path id="Path_3" data-name="Path 3" d="M468.343,223.964s66.589-239.84,9.235-222.821C443.325,11.307,357.9,125.349,336.656,105.447c-82.4-77.215-102.485-10.022-186.546-52.676S0,177.421,0,177.421l41.765,46.543H468.343Z" transform="translate(0 1.036)" fill="#6386f7"/>
  <path id="Path_3_Copy" data-name="Path 3 Copy" d="M468.351,225.646S508.44-24.728,477.587,2.753C446.613,30.341,471,112.841,415.812,112.841c-49.439,0-119.964,48.605-140.605,48.605-136.869,0-101.076-148.525-167.878-54.388S0,179.088,0,179.088l41.766,46.557H468.351Z" transform="translate(0 -0.646)" fill="#b882f8" opacity="0.559"/>
</svg>
