<svg xmlns="http://www.w3.org/2000/svg" width="35" height="34.613" viewBox="0 0 35 34.613">
  <g id="settings" transform="translate(0.5 0.5)">
    <g id="Group">
      <path id="Shape" d="M0,8.6a8.7,8.7,0,0,1,17.4,0A8.7,8.7,0,0,1,0,8.6Z" transform="translate(8.302 8.207)" fill="#797d9e" stroke="#707070" stroke-width="1"/>
      <path id="Shape-2" data-name="Shape" d="M14.8,33.613A2.535,2.535,0,0,1,12.256,31.1v-.367a.942.942,0,0,0-.589-.875l-.229-.094a.96.96,0,0,0-1.043.208l-.261.257a2.568,2.568,0,0,1-3.6,0L3.424,27.149a2.5,2.5,0,0,1,0-3.557l.265-.262A.925.925,0,0,0,3.9,22.3L3.8,22.081a.945.945,0,0,0-.886-.586H2.546A2.535,2.535,0,0,1,0,18.977V14.631a2.53,2.53,0,0,1,2.546-2.513h.372a.954.954,0,0,0,.886-.582L3.9,11.31a.926.926,0,0,0-.21-1.032l-.265-.262a2.5,2.5,0,0,1,0-3.556L6.535,3.384a2.568,2.568,0,0,1,3.6,0l.265.262a.951.951,0,0,0,1.044.207l.221-.094a.934.934,0,0,0,.593-.875V2.516A2.535,2.535,0,0,1,14.8,0h4.4A2.529,2.529,0,0,1,21.74,2.516v.368a.942.942,0,0,0,.589.875l.229.094A.952.952,0,0,0,23.6,3.646l.265-.262a2.568,2.568,0,0,1,3.6,0L30.577,6.46a2.5,2.5,0,0,1,0,3.556l-.266.262A.926.926,0,0,0,30.1,11.31l.094.219a.945.945,0,0,0,.886.586h.372A2.535,2.535,0,0,1,34,14.631v4.338a2.535,2.535,0,0,1-2.546,2.517h-.372a.953.953,0,0,0-.886.582L30.1,22.3a.925.925,0,0,0,.209,1.031l.266.262a2.5,2.5,0,0,1,0,3.556l-3.111,3.076a2.568,2.568,0,0,1-3.6,0l-.261-.258a.952.952,0,0,0-1.043-.207l-.226.094a.936.936,0,0,0-.593.876v.367A2.54,2.54,0,0,1,19.2,33.613Z" fill="#797d9e" stroke="#707070" stroke-width="1"/>
    </g>
  </g>
</svg>
