<svg xmlns="http://www.w3.org/2000/svg" width="500.51" height="237.983" viewBox="0 0 500.51 237.983">
  <g id="headerBackground" transform="translate(0 -0.646)">
    <path id="Rectangle" d="M8,0H406a8,8,0,0,1,8,8V235a0,0,0,0,1,0,0H0a0,0,0,0,1,0,0V8A8,8,0,0,1,8,0Z" transform="translate(54 3.629)" fill="#5479f1"/>
    <path id="Path_3" data-name="Path 3" d="M468,236.947s66.54-253.76,9.229-235.754C443,11.947,357.634,132.609,336.41,111.551,254.068,29.855,234,100.947,150,55.818S0,187.7,0,187.7l41.735,49.244H468Z" transform="translate(0 1.682)" fill="#6386f7"/>
    <path id="Path_3_Copy" data-name="Path 3 Copy" d="M468,238.629S508.059-26.192,477.229,2.875c-30.95,29.18-6.584,116.44-61.729,116.44-49.4,0-119.874,51.41-140.5,51.41-136.766,0-101-157.1-167.752-57.526S0,189.385,0,189.385l41.735,49.244H468Z" fill="#b882f8" opacity="0.559"/>
  </g>
</svg>
